<?xml version="1.0" encoding="iso-8859-1"?>
<!-- Generator: Adobe Illustrator 19.0.0, SVG Export Plug-In . SVG Version: 6.00 Build 0)  -->
<svg version="1.1" id="Capa_1" xmlns="http://www.w3.org/2000/svg" xmlns:xlink="http://www.w3.org/1999/xlink" x="0px" y="0px"
	 viewBox="0 0 512 512" style="enable-background:new 0 0 512 512;" xml:space="preserve">
<g>
	<g>
		<path d="M349.978,133.572l-10.006-61C338.783,65.322,332.518,60,325.17,60H186.83c-7.347,0-13.613,5.322-14.802,12.572l-10.005,61
			C160.526,142.7,167.58,151,176.825,151h158.35C344.425,151,351.473,142.696,349.978,133.572z M194.486,121l5.084-31h112.86
			l5.085,31H194.486z"/>
	</g>
</g>
<g>
	<g>
		<circle cx="106" cy="376" r="15"/>
	</g>
</g>
<g>
	<g>
		<circle cx="166" cy="376" r="15"/>
	</g>
</g>
<g>
	<g>
		<circle cx="226" cy="376" r="15"/>
	</g>
</g>
<g>
	<g>
		<circle cx="286" cy="376" r="15"/>
	</g>
</g>
<g>
	<g>
		<circle cx="346" cy="376" r="15"/>
	</g>
</g>
<g>
	<g>
		<circle cx="406" cy="376" r="15"/>
	</g>
</g>
<g>
	<g>
		<path d="M480.561,433.397l-24.328-98.311c-4.321-17.285-18.239-30.07-35.232-33.288V286c0-19.555-12.541-36.228-30-42.42v-37.483
			c17.503-8.915,27.205-28.106,23.977-47.475l-20.003-121.02C391.342,15.814,372.674,0,350.586,0H161.414
			c-22.088,0-40.756,15.814-44.391,37.622l-19.997,120.98c-3.243,19.46,6.533,38.613,23.974,47.495v37.483
			c-17.459,6.192-30,22.865-30,42.42v15.798c-16.994,3.219-30.913,16.008-35.242,33.323l-24.319,98.276
			C31.21,434.32,31,435.856,31,437v30c0,24.813,20.187,45,45,45h360c24.813,0,45-20.187,45-45v-30
			C481,435.917,480.789,434.316,480.561,433.397z M126.621,163.514l19.997-120.98C147.828,35.271,154.051,30,161.414,30h189.172
			c7.362,0,13.585,5.271,14.793,12.514l20.003,121.02c1.527,9.156-5.499,17.466-14.796,17.466H141.414
			C132.161,181,125.083,172.744,126.621,163.514z M361,211v30H151v-30H361z M121,286c0-8.271,6.729-15,15-15h240
			c8.271,0,15,6.729,15,15v15H121V286z M84.871,342.362C86.543,335.672,92.528,331,99.423,331c6.167,0,309.775,0,313.154,0
			c6.896,0,12.879,4.672,14.543,11.327L446.836,422H65.164L84.871,342.362z M451,467c0,8.271-6.729,15-15,15H76
			c-8.271,0-15-6.729-15-15v-15h390V467z"/>
	</g>
</g>
<g>
</g>
<g>
</g>
<g>
</g>
<g>
</g>
<g>
</g>
<g>
</g>
<g>
</g>
<g>
</g>
<g>
</g>
<g>
</g>
<g>
</g>
<g>
</g>
<g>
</g>
<g>
</g>
<g>
</g>
</svg>
